<?xml version="1.0" encoding="utf-8"?>
<!-- Generator: Adobe Illustrator 19.0.0, SVG Export Plug-In . SVG Version: 6.00 Build 0)  -->
<svg version="1.1" id="Layer_1" xmlns="http://www.w3.org/2000/svg" xmlns:xlink="http://www.w3.org/1999/xlink" x="0px" y="0px"
	 viewBox="-4477 1478.3 44 44.7" style="enable-background:new -4477 1478.3 44 44.7;" xml:space="preserve">
<style type="text/css">
	.st0{fill:#9D9D9D;}
	.st1{fill:#FFFFFF;}
</style>
<g id="Layer_1_1_">
</g>
<g id="Layer_2">
</g>
<g id="Layer_3">
</g>
<g id="XMLID_243_">
	<path id="XMLID_251_" class="st0" d="M-4442.6,1522h-24.9c-1.3,0-2.4-1.1-2.4-2.4v-24.2c0-1.3,1.1-2.4,2.4-2.4h24.9
		c1.3,0,2.4,1.1,2.4,2.4v24.2C-4440.2,1520.9-4441.2,1522-4442.6,1522z"/>
	<path id="XMLID_245_" class="st0" d="M-4455,1480c-5.6,0-10.2,5.8-10.2,13s4.6,13,10.2,13s10.2-5.8,10.2-13S-4449.4,1480-4455,1480
		z M-4455,1503c-4.3,0-7.8-4.5-7.8-10c0-5.5,3.5-10,7.8-10s7.8,4.5,7.8,10C-4447.2,1498.5-4450.7,1503-4455,1503z"/>
	<circle id="XMLID_244_" class="st1" cx="-4455" cy="1507.5" r="5.1"/>
</g>
</svg>
