<?xml version="1.0" encoding="utf-8"?>
<!-- Generator: Adobe Illustrator 19.0.0, SVG Export Plug-In . SVG Version: 6.00 Build 0)  -->
<svg version="1.1" id="Layer_1" xmlns="http://www.w3.org/2000/svg" xmlns:xlink="http://www.w3.org/1999/xlink" x="0px" y="0px"
	 viewBox="-4448 1453 102 95" style="enable-background:new -4448 1453 102 95;" xml:space="preserve">
<style type="text/css">
	.st0{fill:#0E9BD3;}
	.st1{fill:#EAEAEA;}
</style>
<g id="Layer_1_1_">
</g>
<g id="Layer_2">
</g>
<g id="Layer_3">
</g>
<circle id="XMLID_230_" class="st0" cx="-4398" cy="1500.5" r="41"/>
<path id="XMLID_231_" class="st1" d="M-4389.2,1526.1h-17.6c-0.7,0-1.2-0.5-1.2-1.2v-26.6c0-0.7,0.5-1.2,1.2-1.2h17.6
	c0.7,0,1.2,0.5,1.2,1.2v26.6C-4388,1525.5-4388.5,1526.1-4389.2,1526.1z"/>
<path id="XMLID_232_" class="st1" d="M-4414.7,1501.8l15.7-27.2c0.5-0.8,1.6-0.8,2,0l15.7,27.2c0.5,0.8-0.1,1.8-1,1.8h-31.4
	C-4414.6,1503.6-4415.2,1502.6-4414.7,1501.8z"/>
</svg>
